<?xml version="1.0" encoding="utf-8"?>
<!-- Generator: Adobe Illustrator 16.0.0, SVG Export Plug-In . SVG Version: 6.00 Build 0)  -->
<!DOCTYPE svg PUBLIC "-//W3C//DTD SVG 1.1//EN" "http://www.w3.org/Graphics/SVG/1.1/DTD/svg11.dtd">
<svg version="1.1" id="Layer_1" xmlns="http://www.w3.org/2000/svg" xmlns:xlink="http://www.w3.org/1999/xlink" x="0px" y="0px"
	 width="720px" height="620px" viewBox="0 0 720 620" enable-background="new 0 0 720 620" xml:space="preserve">
<g>
	<rect x="-1016.818" y="250.255" fill="#FFFFFF" width="28.425" height="28.412"/>
	<path fill="#FFFFFF" d="M-1420,160v300h720V160H-1420z M-1045.23,193.42h28.412V165h28.425v28.42h-28.425v28.415h-28.412V193.42z
		 M-959.446,455h-58.153c26.781-10.161,48.103-31.367,58.152-57.884L-959.446,455L-959.446,455z M-959.446,356.006
		c0,54.29-45.11,98.729-100.238,98.729h-4.329c-55.129,0-100.241-44.426-100.241-98.729V250.315
		c11.524,0.271,84.757,5.774,102.341,100.85v-100.91h45.096v-28.417h28.425v28.417h28.947V356.006L-959.446,356.006z"/>
</g>
<rect fill="#FFFFFF" width="720" height="155.5"/>
<rect y="480.5" fill="#FFFFFF" width="720" height="139.5"/>
<path fill="#FFFFFF" d="M0,151v334.83h720V151H0z M466.437,374.318c0,56.191-46.684,102.176-103.735,102.176h-4.477
	c-57.057,0-103.743-45.975-103.743-102.176V264.942c11.927,0.278,87.714,5.977,105.911,104.368V264.881h35.266v-34.57h-35.329
	v-35.326h35.329v-35.322h35.316v35.322h-35.316v35.326h35.316v35.322h-35.189v34.571h35.328v-35.324h35.323V374.318z"/>
</svg>
